<svg width="45" height="41" viewBox="0 0 45 41" fill="none" xmlns="http://www.w3.org/2000/svg">
<path d="M36.95 11.65V7.35H32.65V4.35H36.95V0H39.95V4.35H44.3V7.35H39.95V11.65H36.95ZM3 40.35C2.2 40.35 1.5 40.05 0.9 39.45C0.3 38.85 0 38.15 0 37.35V11.7C0 10.9333 0.3 10.2417 0.9 9.625C1.5 9.00833 2.2 8.7 3 8.7H10.35L14 4.35H28V7.35H15.4L11.75 11.7H3V37.35H37V16.35H40V37.35C40 38.15 39.6917 38.85 39.075 39.45C38.4583 40.05 37.7667 40.35 37 40.35H3ZM19.975 33.05C22.3917 33.05 24.4167 32.2333 26.05 30.6C27.6833 28.9667 28.5 26.9417 28.5 24.525C28.5 22.1083 27.6833 20.0917 26.05 18.475C24.4167 16.8583 22.3917 16.05 19.975 16.05C17.5583 16.05 15.5417 16.8583 13.925 18.475C12.3083 20.0917 11.5 22.1083 11.5 24.525C11.5 26.9417 12.3083 28.9667 13.925 30.6C15.5417 32.2333 17.5583 33.05 19.975 33.05ZM19.975 30.05C18.3917 30.05 17.0833 29.525 16.05 28.475C15.0167 27.425 14.5 26.1083 14.5 24.525C14.5 22.9417 15.0167 21.6333 16.05 20.6C17.0833 19.5667 18.3917 19.05 19.975 19.05C21.5583 19.05 22.875 19.5667 23.925 20.6C24.975 21.6333 25.5 22.9417 25.5 24.525C25.5 26.1083 24.975 27.425 23.925 28.475C22.875 29.525 21.5583 30.05 19.975 30.05Z" fill="#4529E6"/>
</svg>
