<?xml version="1.0" encoding="UTF-8"?>
<svg version="1.1" viewBox="0 0 2048 1472" width="1049" height="754" xmlns="http://www.w3.org/2000/svg">
<path transform="translate(795,190)" d="m0 0 8 2 85 85 8 7 233 233 5 6 5-2 11-12 119-119 1-2h2l2-4 9-9 8-7 19-19 5-6 8-7 44-44 2-1h6l8 7 7 7 8 7 13 13 7 8 64 64 7 8 22 22 4 5 5 4 1-45-6-1-5-5-1-2v-17l4-8 4-3 95 1 6 3 3 4 1 3v20l-5 4-7 1 1 136 16 17 13 12 26 26v2l3 1v2h2v2l4 2 30 30 7 8 38 38 7 8 8 8 1 2v6l-5 6-8 7-7 7-7 4-6-1-8-7-31-31-1 307h22l86 2 2 1 1 5-2 3-10 1-65 2h-260l-313 1h-378l-77-1h-300l-82-2-24-1-5-2 1-7 12-1 39-1 73-1v-262l1-67 1-15-7 6-7 8-15 15-7 8-8 7h-9l-18-18-9-7-1-2v-8l4-5h2l2-4 4-4h2l2-4 22-22 7-8 47-47 8-7 100-100h2l2-4 21-21v-36l1-110-11-1-4-7v-18l3-8 6-5 52-1h52l7 1 5 5 2 6v22l-4 5-11 2v48l10-10 7-8 33-33 8-7 30-30 8-7 29-29 4-5zm-232 60v9l6 1h50v-1l-22-2-21-1-2-1h34l28 2h11l3-2v-3h3l1 2v-4zm90 6m-76 20v14l1 5 16 1 8-1v2h6l1-3h2l1 3 1-2 4-2 16-1 2-2 2-12 2-1-31-1zm61 14m-8 5 1 2zm-1 13-1 7 1 13h2l6-9 1-6-3-1-1-3zm-40 44-3 2v12l-7 2-1 8 5 4h6l6-10-1-4-5 1v-6l2-4-1-5zm-8 14m-2 17v4l5-1 1-3zm1007 10v1h7v-1zm-48 12m6 1m5 1m36 44 1 2zm2 50m1 1 4 6h1v-6zm-1116 87v2h2v-2zm21 3v4h2v-4zm-56 34-1 8 2 4h-2v2h43v-4l-6 1h-19l-10-1-1-1 15-6-4-2zm38 1m4 0m-99 2m-1 1m99 0-1 2h2zm-100 1m-1 1m-1 1m-1 1m-1 1m-1 1m-1 1m-1 1m-1 1m-1 1m-1 1m-1 1m-1 1m-1 1m-1 1m-1 1m74 0 1 3h2l1 4 5-1 1-6zm-75 1m7 6m-4 4m71 8-1 3v7l1 1h49v-3l-8-7-22-1zm0 17v7l4 6h7l10-6 1-3h8l3 1 2 6h11l1-8-1-1-27-1zm-1 19v15h49v-6l-7-2h-2v-2l9-3 1-2zm35 20-36 1v13l19-1v-2h2l3-3 8 1v2l-3 1v1h15l1-5 3-1 2-4v-3zm6 17-6 1-36 1v16h25l18-1 1-1 2-15zm-42 23v11l1 1h32l4-2 4-8v-2zm1 18v6l1 1h23l1-1 1 7-13-1h-13v10h47l-4-6-2-2 1-5-5-6-2-3zm0 28v14l1 2h50l2-1-3-12-1-3zm630 19m-580 2-45 1-5 1v13h70v-2l-9-2h-16v-2l7-2 4-7zm615 6m-665 15v11l20-1 41-1 6-2 3-6-29-1zm62 13-62 2-1 1v14l2 1 20-1 55-1-6-13-1-3zm568 13v12h8l4-2 1-5 9-3v-1zm608 9 1 2zm-1177 0-62 1v14h16l61-2 1-13zm1172 13 1 2zm5 1 1 2zm-1161 5-11 1h-67l-1 1v14h37l28-1h2 12v-3h2v-12zm555 6 1 5h7l4-1 1-2 3 2 15-2 3-2zm606 5 1 2zm-597 5-10 2v1l11 1 17-1v-2l-2-1zm20 1v2l2-1zm558 2v1l21 1v-2zm-1220 2-1 5 1 1 22 1 4 2h9l7-3v-6zm72 1 2 2 8-1v-1zm-27 5-3 1 1 3h8l4-2v-2zm588 0m607 0-1 2h2zm-1172 2-9 2-2 11-2 3-5 1h-49l-1 1v13l2 1 13-1 132-1 3-1-1-11-2-2 44-1v-1l-40-1-1-1h-5l-6 2h-29l5-2-2-3-6-3-10-1-9-3v-2h-7l-3 1-6-1zm-68 2v10h27l27-1-4-3-8-4-15-2zm1231 6v1l7 1 1 5h-6l1 2h7v-9zm-56 15-18 1-8 2v1l10 1 82 2v-6l-6-1zm-28 3m-104 9-46 1v2h2l-1 6 1 1 176 1h65l1-1v-8l-11-1-31-1zm-411 1v10h19l15-1 42 1h121l33-1 9-1v-1l-31-1 3-2-8-1h-148l-38-2zm-371 2m-45-1-216 1v8l3 1 210-1 57-1h339l-1-7h-65l-77-1h-53l-60 1-25-1h-55l-4 3v1h-12l-2-2-25-2z" fill="#FCFCFC"/>
<path transform="translate(1327,395)" d="m0 0h23l62 2 9 1 3 4-27 3-9 2 36-3 4 2 13 13-2 1h-30l-17 1v2h53l10 10v1l-54 1 4 1 48 1 7 2 11 11-56-1v2l9 1 17 1 34 1 12 11v1l-45 2-1 1 50 1 10 9 4 5-45 1 1 1 49 2 13 13v1l-46 1-5 1h54l5 4v2l-35 2h38l11 10v1l-53 1 13 2 44 1 10 9v1l-51 1v2l54 1 8 7 3 4-52 1-6 1 62 1 12 12-2 1h-33l-17 1 3 2 53 1 10 10v1h-37l-15 1 3 1 53 1 10 10-1 2h-43l42 1 7 2 7 7v1l-43 2h45l6 5v2l-8 1-48 1 22 1h38l8 7 2 4-60 2-6 1h70l11 10v1l-48 1-35 1v2l72 1 16 1 3 4 1 7-3 1h-57l3 1 11 1 46 1v11l-46 1 3 1 43 2v13h-24l-21 1 3 1 42 1v14l-15 1h-12v2l27 1 1 2v12l-1 1-24 1 25 1v14h-34l-24 1 23 1h34l1 1v13l-1 1h-58l-1 1h59l1 1v81l-19 1 19 1v13l-30 1-15 1 16 2 28 1 1 1v11h-39v2l38 1 1 1v17l-25 1-7 1 6 1 26 1v13l-30 1-2 1 31 1 1 1v12l-85 2h-23v2h53l55 1v12l-83 2 14 1 68 1 1 5-1-3h-66l-18 1-3 1 5 1 77 2v1l-74 1-133 1-31 1-1 1 46 1v1h-46v2h2v6l176 1v1l-50 1-155 1h-78l-227-1h-36v-14h5l1 3h-3v10l19-1 15-1 42 1h121l33-1-22-1-8-1 3-2-4-2-1-1-62-2-139-3v-10h88l39-1 6-1-127-1-6-1v-22l33-1 13-1v-1l-46-1v-32l52-2 5-1-1-1h-56v-14l46-1 9-1-55-1v-31h27l37-1v-2l-64 1v-14l42-1 14-2-56-1v-14h33l8-1h-41v-12l2-1h34v-2l-36-1v-12h24l14-1-37-1-1-1v-17l3-1 2 1h26v-1l-30-1-1-1v-11l5-1h32v-2l-37 1v-12h60v-2l-51-1h-8l-1-1v-14l21-1 71-2h-67l-25 1v-14h58l9-1-16-1h-51v-28l53-1-10-1-42-1 4-6 6-5 41-1 8-1-9-1h-37l12-12 6-2 48-1v-2h-48l1-3 8-7 3-3 45-1-8-1-34-1 6-7 9-9 37-1h24v-2h-57l6-7 3-3h77l-61-2h-13l6-7 7-7 42-1-3-1-35-1 6-7 7-6h35l-10-1h-24l6-7 4-4 27-1-3-1-20-1 6-7 4-2 1-2v2l3-2 7-1-9-1 6-8 4-3 28-1 1-2h-26l6-7 9-9 2-1 28-1 3-1-1-1-26-1 6-7 8-8 5-1 19-1 7-1-27-1 5-6 3-2 9-9 3-1 30-1 8-1-36-1 2-4 6-5 5-5 7-8 6-6h35l-32-2 6-7 5-4 52-1-3-1-34-1-10-1 3-5zm-262 431m35 8m-35 41v12h8l4-2 1-5 9-3v-1zm608 9 1 2zm-5 13 1 2zm-601 12 1 5h7l4-1 1-2 3 2 15-2 3-2zm606 5 1 2zm-597 5-10 2v1l11 1 17-1v-2l-2-1zm20 1v2l2-1zm558 2v1l21 1v-2zm-587 8m607 0-1 2h2zm-9 10v1l7 1 1 5h-6l1 2h7v-9z" fill="#FCFCFC"/>
<path transform="translate(795,190)" d="m0 0 8 2 85 85 8 7 233 233 5 6 5-2 11-12 119-119 1-2h2l2-4 9-9 8-7 19-19 5-6 8-7 44-44 2-1h6l8 7 7 7 8 7 13 13 7 8 64 64 7 8 22 22 4 5 5 4 1-45-6-1-5-5-1-2v-17l4-8 4-3 95 1 6 3 3 4 1 3v20l-5 4-7 1 1 136 16 17 13 12 26 26v2l3 1v2h2v2l4 2 30 30 7 8 38 38 7 8 8 8 1 2v6l-5 6-8 7-7 7-7 4-6-1-8-7-31-31-1 307h22l86 2 2 1 1 5-2 3-10 1-65 2h-260l-313 1h-378l-77-1h-300l-82-2-24-1-5-2 1-7 12-1 39-1 73-1v-262l1-67 1-15-7 6-7 8-15 15-7 8-8 7h-9l-18-18-9-7-1-2v-8l4-5h2l2-4 4-4h2l2-4 22-22 7-8 47-47 8-7 100-100h2l2-4 21-21v-36l1-110-11-1-4-7v-18l3-8 6-5 52-1h52l7 1 5 5 2 6v22l-4 5-11 2v48l10-10 7-8 33-33 8-7 30-30 8-7 29-29 4-5zm-232 60v9l6 1h50v-1l-22-2-21-1-2-1h34l28 2h11l3-2v-3h3l1 2v-4zm90 6m-76 20v14l1 5 16 1 8-1v2h6l1-3h2l1 3 1-2 4-2 16-1 2-2 2-12 2-1-31-1zm61 14m-8 5 1 2zm-1 13-1 7 1 13h2l6-9 1-6-3-1-1-3zm117 1-4 4h39l-40 1-10 9-2 3 26 1 9 1-39 1-8 7-3 5h32l-10 2-26 1-12 11v1l46 2 1 1h-50l-10 9-2 4h39l-17 2-26 1-9 9 2 1h55l-33 1h-26l-8 7-3 5 4 1-7 1-13 12-2 3h41v2l-45 1-19 19-6 5-3 5h10l-2 1-11 1-15 14-11 12-2 2v3l-4 1-10 9-7 8-7 6-4 6h20l-18 1-7 3-12 12 3 1h17l19 1-9 1-34 1-15 14-1 3 36 1 2 1-14 1h-28l-7 7-7 8 4 1h23l4 1-19 1h-15l-10 9-6 7h24l18 1-3 1-42 1-8 7-7 7v1l50 1 9 1-25 2h-39l-13 13v2l39 1 17 1-5 1-17 1h-27l-7-2v18h45v2l-11 1h-34l-1 5v10l15 1 29 1 2 1-21 1h-25v14l39 1 21 1-5 1-55 1v15l3 1h51l-18 2-36 1v17l3 1h47l1 1-11 1-3 1-36 1v13l35 1 2 1-38 3v17l40 1-9 2-31 1v13h39l-1 2-3 1-34 1-1 1v8l1 1h25v1h-25l-1 1v12l1 1 35 1 10 1-45 1-1 1v14l1 3 57 1v2h-5l-1 1-51 1-1 1v13l1 1 71 2-5 1-66 1-1 1v11l5 1v-2h65v2l-35 1-3 1-30 1-2 1v15l1 1h72l4 1-77 2v16h78v1l-5 1-21 1-51 1-1 1v16h28l7 1-11 1-23 1-1 1v20l47 1 8 1 1 2h-54l-1 1v13l1 1 257 1v2l-10 1-32 1-216 1v8l3 1 210-1 57-1h339l-1-7h-65l-201-2-5-1-55-1 13-1 44-1 247-2 25-1v-17l-1-1-13-1 14-1v-37l-10-1-26-1-1-1 36-1 1-1v-26l-28-1v-2h22l6-1v-101l-4-1h-25v-2l25-1 4-1v-7l-37-2-16-6 39 3 13 2-1-4 2-1v-12l-4-2-41-1-21-1-4-1 69-1v-13l-7-2h-29l-9-6-15-15-3-5v-5l22-22 7-8 46-46 7-8 10-10v-1l-45-1v-2h15l35-1 11-12v-1l-41-2-4-2 50-1 4-4-1-4-5-5-12-1-41-1-13-2-1-2h60l-3-5-7-7-4-3-52-1-10-1-2-1 32-1h27l-2-4-9-9-3-2-52-1-3-1 36-1 14-1-4-5-43-1-1-1 36-1h4l-2-4-11-10-36-1-7-1 3-1 34-1-6-7-8-7-30-2-19-1-2-1 24-1h22l-3-5-7-6-41-1-9-1v-2l45-1-6-7-7-7-57-1v-2l52-1-6-7-7-8-4-2-58-1 4-1 18-1h33l-6-7-9-8-2-1-43-1-5-1 1-1 44-1-12-12-49-1v-2h45l-1-3-7-6-29 1h-24v-2l49-2-6-7-7-7-41-1-15-1-1-2h22l29-1-6-7-8-7-48-2-9-2h53l-6-7-7-7-2-1-64-1-12-1zm-157 43-3 2v12l-7 2-1 8 5 4h6l6-10-1-4-5 1v-6l2-4-1-5zm-8 14m-2 17v4l5-1 1-3zm1007 10v1h7v-1zm-259 2-8 7-2 4 10 1 34 1 3 1-52 1-8 7-3 4 32 2h-35l-4 5-5 5-7 8-6 4-4 4v2l36 1-8 1-30 1-5 3-7 7-5 4-3 4 27 1-7 1-19 1-6 2-13 13v1l26 1 1 1-3 1-28 1-8 7-9 9v1h26l-1 2-28 1-7 6-3 5 9 1-7 1-3 2-1-2v2l-4 2-6 7 20 1 3 1-27 1-10 10 2 1h22l10 1h-35l-8 7-5 6 35 1 3 1-42 1-13 13 2 1 44 1 28 1h-77l-9 9v1h57v2h-24l-37 1-15 15v1l34 1 8 1-45 1-9 9-3 2v2h48v2l-48 1-7 3-11 11h37l9 1-8 1-41 1-8 7-2 4 42 1 10 1-53 1v28h51l16 1-9 1h-58v14l25-1h67l-71 2-21 1v14l1 1h22l37 1v2h-60v12l37-1v2h-36l-1 1v11l1 1 30 1v1h-26l-4-1-1 1v17l1 1 37 1-14 1h-24v12l36 1v2h-35l-1 1v12h41l-8 1h-33v14l56 1-14 2-42 1v14l64-1v2l-37 1h-27v31l55 1-9 1-46 1v14h56l1 1-5 1-52 2v32l46 1v1l-13 1-33 1v22l6 1 127 1-6 1-39 1h-88v10l139 3 62 2 1 1-64 1h-80l-38-2-13-1-2-3h-5v14h57l206 1h78l270-2 1-1v-8l-11-1-31-1-202-1 1-1 31-1 133-1 79-1 1-7-1-1-68-1-14-1 83-2v-12l-55-1h-53v-2h23l85-2v-12l-1-1-31-1 2-1 30-1v-13l-26-1-6-1 7-1 25-1v-17l-1-1-38-1v-2h39v-11l-1-1-28-1-16-2 15-1 30-1v-13l-19-1 19-1v-81l-5-1h-55l1-1h58l1-1v-13l-1-1h-34l-23-1 24-1h34v-14l-25-1 24-1 1-1v-12l-1-2-27-1v-2h12l15-1v-14l-42-1-3-1 21-1h24v-13l-43-2-3-1 46-1v-11l-46-1-11-1-3-1h59l1-2-2-8-2-2-16-1-72-1v-2l35-1 48-1-6-7-5-4h-70l6-1 60-2-2-4-8-7h-38l-22-1 48-1 8-1-2-4-4-3h-45l43-2-6-7-3-2-5-1-42-1h44l-2-4-8-8-53-1-3-1 15-1h37l-6-7-4-4-53-1-3-2 17-1h35l-6-7-6-6-62-1 6-1 52-1-6-7-5-4-54-1v-2l51-1-6-7-4-3-44-1-13-2 53-1-6-7-5-4h-38l35-2-2-4-5-2h-52l5-1 46-1-6-7-7-7-49-2-1-1 45-1-6-7-8-7-50-1 1-1 45-2-6-7-6-5-34-1-17-1-9-1v-2l56 1-5-5-8-7-5-1-48-1-4-1 54-1-6-7-4-4h-53v-2l17-1h32l-6-7-9-9-27 2-11 1 9-2 27-3-3-4-9-1-62-2zm211 10m6 1m5 1m36 44 1 2zm2 50m1 1 4 6h1v-6z" fill="#3B3B3C"/>
<path transform="translate(711,660)" d="m0 0h168l1 1v200l-2 1h-102l-65-1z" fill="#FDFDFD"/>
<path transform="translate(794 1e3)" d="m0 0h360l295 1 235 1 151 4 2 1-1 5-10 2-12 1-27 1-70 1h-1227l-177-1-47-2-9-1-1-1v-5l1-1 71-2 117-2 138-1h141z" fill="#474748"/>
<path transform="translate(1323,678)" d="m0 0 115 1 1 3v155h-135l-1-75v-83z" fill="#FDFDFD"/>
<path transform="translate(634,1118)" d="m0 0h18l49 1 4 9 12 26 12 28 15 34 13 31 4 11 3 8 6-13 10-24 10-22 11-27 13-29 11-28 2-5h22l45 1-1 13-1 1-23 2-5 5v152l3 5 7 3 18 2v14l-1 1h-88v-14l1-1 17-2 7-3 3-6 1-139h-2l-3 10-10 25-15 37-18 42-9 20-11 29-2 2h-10l-3-4-14-34-11-26-14-33-15-37-12-27-2-1 1 2 1 133 3 6 6 3 18 3v14l-1 1h-76v-14l19-3 8-4 2-5 1-55v-95l-3-5-4-2-21-1-1-1z" fill="#414142"/>
<path transform="translate(161,1118)" d="m0 0h92v14l-20 2-6 3-2 3-1 65h93l-1-50-1-16-5-4-3-1-19-1v-15h92v14l-20 2-7 2-2 5-1 85v65l3 5 4 3 6 2 18 2-1 13-1 1h-90l-1-1v-13l16-1 10-4 2-3v-74l-92-1 1 74 4 4 5 2 18 2 1 1v8l-2 6h-90l-1-1v-13l18-2 10-4 2-5v-150l-3-5-5-3-18-1-4-2v-12z" fill="#3F3F40"/>
<path transform="translate(1180,1118)" d="m0 0h91v14l-3 1-20 2-3 1-2 7-1 62h94l-1-61-2-5-6-5-20-1-1-12 1-3h91v9l-2 6-21 2-5 4-1 14v139l3 5 6 3 19 3v13l-91 1v-14l15-1 10-4 3-4 1-3 1-71h-94l1 73 4 5 11 3 12 1v14l-69 1h-21v-14l14-1 9-3 5-4v-153l-3-5-6-3-19-1-1-10z" fill="#3E3E3F"/>
<path transform="translate(1658,1118)" d="m0 0h94l21 2 11 3 9 4 9 6 8 9 4 11 1 5v10l-3 13-6 10-10 9-15 7-3 1 8 3 13 4 12 8 7 7 8 15 1 4v21l-4 13-6 10-7 7-10 7-15 6-16 3-112 1v-13l1-1 16-2 8-3 4-4 1-37-1-117-5-5-3-1-20-2zm68 15-6 2v70l32-1 11-4 8-6 7-9 2-10v-11l-3-12-6-8-8-6-10-4-5-1zm-6 86v74l5 5 9 3h24l13-4 9-6 6-7 4-12v-20l-4-12-4-6-7-7-12-6-7-2z" fill="#3E3E3F"/>
<path transform="translate(491,1115)" d="m0 0h30l18 3 14 5 16 9 12 11 9 11 8 14 6 18 3 19v23l-3 18-4 14-9 17-7 9-8 9-12 9-16 8-12 4-16 3h-29l-16-3-12-4-12-6-13-10-8-8-8-11-8-16-4-13-3-18v-28l3-16 7-20 9-14 8-10 11-9 9-6 15-7 16-4zm12 15-15 2-9 3-10 7-5 5-7 8-8 16-5 21-1 6v30l4 24 6 16 6 11 9 10 8 6 11 5 10 3h21l13-4 12-7 10-9 6-8 6-12 3-9 3-21v-24l-4-25-8-20-7-11-12-12-10-6-11-4z" fill="#3C3C3D"/>
<path transform="translate(736,403)" d="m0 0h115l1 1v121l-7 2h-103l-5-1-1-2z" fill="#FDFDFD"/>
<path transform="translate(796,222)" d="m0 0 4 2 7 7 5 4 4 5 2 1v2l4 2 21 21 7 8 11 11 7 8 7 7 7 8 8 8 7 8 15 16 10 10 7 8 22 22 4 5 8 7 23 23 11 9 15 14 15 15 7 8 28 28 8 7 23 23 8 7 12 12 5 4-2 4-5 4-34-34-8-7-122-122-8-7-101-101-7-8-10-10-7-8-9-9-6-7-7 4-36 36-15 14-25 25-8 7-21 21-7 8-5 5-13 12-57 57-8 7-41 41-7 8-6 5-7 8-3 3h-2v2h-2l-2 4-45 45-8 7-23 23-6 7-8 7-26 26-6 5-5 5-4 3h-2l-1 4-7 6-12 12-7 8-5-1-3-3v-2l9-7 19-19 7-8 9-10 7-8-5 4-22 22-7 8-11 11-6 4h-2l2-4 9-10 171-171 7-8 16-16 7-8 32-32 7-8 12-11 44-44 8-7 28-28 8-7 44-44 2 1-7 8-7 7-9 12v2l11-12 10-13 4-5 7-8 2-4 4-3h2l11-9 9-5 5-2z" fill="#FBFBFB"/>
<path transform="translate(1041,1118)" d="m0 0h28l6 48-1 1-14 1-2-2-5-21-5-8-4-1-20-1h-42l-1 71 39-2 6-4 4-9 3-15h8l5 1v48l2 24-3 1h-11l-2-5-4-16-3-5-5-2-27-1-12-1 1 12 1 63 4 3 7 1h29l27-1 10-3 5-4 6-12 5-16 2-3 14 1 1 2-10 50-2 3-161 1v-14l16-2 8-3 4-4v-154l-4-4-5-2-19-1-1-13 1-1z" fill="#424243"/>
<path transform="translate(1421,1118)" d="m0 0h93v14l-1 1-21 2-6 4-1 2v115l3 14 6 12 5 5 7 6 9 4 10 2h21l13-4 12-7 7-8 5-10 3-19v-68l-1-39-2-5-6-4-4-1-16-1-1-2v-12l1-1h77l1 1v12l-7 2-12 1-6 3-3 4-1 102-1 19-2 12-5 12-5 8-7 8-10 7-15 7-11 3-7 1h-29l-15-3-13-5-11-7-8-7-8-11-5-12-2-9-1-14-1-108-3-6v-2l-6-2-20-1-1-3v-11z" fill="#434344"/>
<path transform="translate(1369,314)" d="m0 0 9 6 7 8 11 10 8 7 10 10 7 8 18 18 12 9 29 29 7 8 31 31 4 2 17 16 11 11 7 8 29 29 7 8 9 9 7 8 12 13 17 17 8 7 10 10 8 7 22 22 7 8 10 9 17 17 7 8 18 18 1 4-4-2-28-28-7-8-27-27-8-7-23-23-2-1v4l4 2 5 5 10 9 8 8 7 8 34 34 7 8 14 13 8 6-4 7-3-1-6-8-4-4h-3l-24-24-7-8-84-84-7-8-15-15-7-8-88-88-8-7-51-51-7-8-7-7-7-8-11-11-8-7-7-7-8-10-7-4 1-3h2l1-3-3-1-1 3-4 8-7 7-7 8-74 74-7 8-78 78-7 8-73 73-7 8-19 19-7 8-19 19-8 7-8 8-8 7-9 10-15 15-6 7-4-1-5-6 2-4 15-16 14-12 10-10 9-11 30-32 26-26 7-8 137-137 7-8 11-11 8-7 19-19 7-8 55-55 8-7z" fill="#FBFBFB"/>
<path transform="translate(1338,478)" d="m0 0h75l1 1v65l-1 27h-86l-1-1v-91z" fill="#FDFDFD"/>
<path transform="translate(711,660)" d="m0 0h168l1 1v200l-2 1h-102l-65-1zm10 10v180h149v-180z" fill="#353536"/>
<path transform="translate(800,763)" d="m0 0h62v78h-61l-1-5z" fill="#343435"/>
<path transform="translate(1323,678)" d="m0 0 115 1 1 3v155h-135l-1-75v-83zm-11 9v141h119v-33l-1-108z" fill="#363637"/>
<path transform="translate(729,763)" d="m0 0h61v77l-2 1h-59z" fill="#343435"/>
<path transform="translate(800,677)" d="m0 0h62v75h-61l-1-1z" fill="#343435"/>
<path transform="translate(728,677)" d="m0 0h62v74l-1 1h-60l-1-9z" fill="#343435"/>
<path transform="translate(576,277)" d="m0 0h1l1 18h21l1-2v2h2v2l6-1 1-2h2 1l5-2 4 1-2 1 12 1h10v10h-16v3h4v20h2l1-5h2l2-4 1-6-3-3-3-2 10 1v13l-2 1 1 1v9l-5 1v2h5l-1 4-8 10-6 5-21 21-4 5-8 7-5 5-8 9-2 2v-21l5-1-3 1v4l5-2 2-2h2l1-2-3-1h3l2-5 3-6v-3l-5 1-1-6 2-4-1-4-2 1v12l-5 2h-3v8l4 4-5 1-1-1z" fill="#F9F9F9"/>
<path transform="translate(1536,391)" d="m0 0h58v33h-19l-1 3h20v9l-18 1 1 1 17 1v16l-21 1v2l21 1v7h-21l-23-1-5-3-5-4v-2l6-2-10-2-1-1v-6l7-1-7-1v-40zm50 2v1h7v-1zm-48 12m6 1m5 1m36 44 1 2z" fill="#F5F5F5"/>
<path transform="translate(736,403)" d="m0 0h115l1 1v121l-7 2h-103l-5-1-1-2zm8 8v101l1 6h99v-106l-1-1z" fill="#353536"/>
<path transform="translate(1375,759)" d="m0 0h49v61h-49z" fill="#343435"/>
<path transform="translate(1318,759)" d="m0 0h48l1 1v60h-49z" fill="#343435"/>
<path transform="translate(1318,693)" d="m0 0h49v57l-1 1h-47l-1-1z" fill="#343435"/>
<path transform="translate(1375,693)" d="m0 0h49v55l-1 2h-48z" fill="#343435"/>
<path transform="translate(795,212)" d="m0 0 4 2 16 15 22 22 8 7 18 18 7 8 92 92v2h2v2l4 2 11 12 14 14 8 7 84 84 8 7 30 30-2 4-4-2-25-25-8-7-9-9-8-7-22-22-8-7-11-12-8-7-15-15-8-7-19-19-8-7-43-43-7-8-11-11-7-8-7-7-7-8-14-15-11-12-8-8-7-8-9-9-4-5-2-1v-2h-2v-2h-2v-2h-2l-4-5-8-7-8-8-8-6-5 2-13 11-4 4-2-1 11-11 7-8z" fill="#FDFDFD"/>
<path transform="translate(1338,478)" d="m0 0h75l1 1v65l-1 27h-86l-1-1v-91zm61 7-65 1-1 11v54l1 14 72-1 1-2v-76l-1-1z" fill="#363637"/>
<path transform="translate(780,982)" d="m0 0 9 1 21-1 6 1 15 1 11 1 6 1h13l4 1 4-1 11-1 12 2 5-1h23l9-1 4-1h19l33-1 5 1h8l13 2 11 2v2l-6 2h-20l-4-2-1 2-4 1h-4l-9-1h-16l-19 1-5-1-2 1h-115l-19 1h-9l-9-1-3 1-10-1-20-1h-4l-3-4 10-1 2-1 13-2 9-1 6 1z" fill="#414042"/>
<path transform="translate(794 1e3)" d="m0 0h360l264 1v1l-28 1h-566l-376 1h-63v-1l60-1 138-1h141z" fill="#FDFDFD"/>
<path transform="translate(750,466)" d="m0 0h40v45h-40z" fill="#343435"/>
<path transform="translate(799,466)" d="m0 0h39v45h-40v-44z" fill="#343435"/>
<path transform="translate(798,417)" d="m0 0h40v43h-39l-1-1z" fill="#353536"/>
<path transform="translate(750,416)" d="m0 0 40 1v42h-40l-1-4v-38z" fill="#343435"/>
<path transform="translate(795,218)" d="m0 0 5 2 13 12 12 11v2h2v2h2v2h2v2l4 2 11 12 7 7 7 8 10 10 7 8 15 16 9 10 16 17 8 8 7 8 42 42 8 7 19 19 8 7 15 15 8 7 11 12 8 7 22 22 8 7 9 9 8 7 23 23h-2l-1 2-13-12-10-10-8-7-23-23-8-7-29-29-7-8-17-17-11-9-15-14-20-20-6-5-7-8-22-22-7-8-13-13-7-8-30-32-14-15-8-8-7-8-16-16-2-1v-2l-4-2-5-6-8-7-5-4v2l-8 5-9 5-9 8-1-3 3-3 5-3 11-10z" fill="#383839"/>
<path transform="translate(764,291)" d="m0 0h64l15 15v3h-96l6-7 7-7z" fill="#FBFBFB"/>
<path transform="translate(1105,983)" d="m0 0h48l18 1h19l16-1h3 3v2l7-1v2h-10l-7 1-5 2-9 1-1 1 10 1 1 2h-48l-11-1h-3l-9 1h-24l-10-1-6-1-5-2 2-2 9-3z" fill="#414042"/>
<path transform="translate(1067,964)" d="m0 0h36l99 2 62 2 4 2-3 1-64 1h-80l-38-2-13-1z" fill="#575657"/>
<path transform="translate(1339,526)" d="m0 0h29v32l-1 1h-28z" fill="#343435"/>
<path transform="translate(1373,526)" d="m0 0h29v31l-1 2h-28z" fill="#353536"/>
<path transform="translate(1203,1299)" d="m0 0h2v2l-4 2h12l6 3 7 1 10-2 6-1v-1l22 1v2h2l1 6-2 1-32-1-13 2 49 1-1-11-12-1-2-2 16 1v14l-69 1h-21v-14l14-1z" fill="#4B4A4C"/>
<path transform="translate(1077,1287)" d="m0 0h2l2 14 1 3h2l-1 9-2 3h-132v-1l103-1-9-1-2-1h-28l-2-4 10-1 19-2 15-3 12-6 9-1-2-1-5 1 4-4h2z" fill="#606061"/>
<path transform="translate(1373,490)" d="m0 0h29v30l-1 1h-28l-1-30z" fill="#353436"/>
<path transform="translate(1339,490)" d="m0 0h28v31h-28z" fill="#343435"/>
<path transform="translate(1525,368)" d="m0 0 82 1 1 1v8l-30 1h-53l-1-1v-9z" fill="#FCFCFC"/>
<path transform="translate(686,1297)" d="m0 0 10 3 14 2v14l-1 1h-76v-14l2 1-1 12 4-2-2-3 1-3 6-3 10-1 6-2 7 3v2l22-1h7l5 2 1-2 1 1 2-1 2 3-1 3-4 1-4-1-5 2 17 1v-12l-14-1-9-3z" fill="#5B5A5C"/>
<path transform="translate(785,270)" d="m0 0h22l18 18-59 1 12-14z" fill="#FDFDFD"/>
<path transform="translate(1340,382)" d="m0 0 66 3 5 3 5 6h-18l-48-1h-20l2-4z" fill="#FDFDFD"/>
<path transform="translate(1355,366)" d="m0 0h21l14 1 14 13v1h-62l6-8z" fill="#FDFDFD"/>
<path transform="translate(795,218)" d="m0 0 5 2 13 12 12 11v2h2v2h2v2h2v2l4 2 11 12 7 7 7 8 10 10 7 8 15 16 9 10h-3l-4-2-29-31-14-15-8-8-7-8-16-16-2-1v-2l-4-2-5-6-8-7-5-4v2l-8 5-9 5-9 8-1-3 3-3 5-3 11-10z" fill="#373738"/>
<path transform="translate(1594,392)" d="m0 0h1v75l-1 8h-19l-17-1-6-5 1-2 37 1-11-1v-1h15v-7h-18l-3-1v-2l4-1h17v-16h-17l-5-1 4-2h18v-9h-20l1-4h15l4 1z" fill="#403F41"/>
<path transform="translate(1018,968)" d="m0 0h27v10l-407 1v-1l9-1 57-1h144l195 1-2-6h-25v-2z" fill="#FDFDFD"/>
<path transform="translate(563,249)" d="m0 0h92l1 1v10l-1 1h-93v-11zm0 1v9l6 1h50v-1l-22-2-21-1-2-1h34l28 2h11l3-2v-3h3l1 2v-4z" fill="#E9E9E9"/>
<path transform="translate(1561,478)" d="m0 0h17l17 1v33h-2l-7-8-7-7v-1l13-1-15-1-8-7-4-5zm26 23m1 1 4 6h1v-6z" fill="#FDFDFD"/>
<path transform="translate(1657,1304)" d="m0 0h1v12l6-2-2-2v-5l5-1 15-1h7l2 5-4 2-14 2 45 1v-2l-4-1 2-4 5-2 5 1-3 1 1 1h14l1-2 3 1v3l-9 3-1 1 34-1 14-2h5l-4 2-12 2-112 1z" fill="#565557"/>
<path transform="translate(1043,680)" d="m0 0h2v29l-1 2-29 2 2-4 9-10 3-3 5-1-2-1 2-4 7-9z" fill="#FDFDFD"/>
<path transform="translate(1290,983)" d="m0 0h34l35 1h13l24 1 5 1h18l15 2v2l-6 2h-11l-11 1-5-1-6 1-30 1h-30v-2h29l23-1 6-2-17-2-46-1-28-1-12-1z" fill="#414042"/>
<path transform="translate(534,446)" d="m0 0 2 1-187 187v-3l23-23 7-8 47-47 8-7z" fill="#FDFDFD"/>
<path transform="translate(433,619)" d="m0 0 1 2h39l18 1-1 2-5 1-17 1h-27l-6-2-1 17h45v2l-11 2h-32l-2-1v5h-1z" fill="#3B3B3C"/>
<path transform="translate(1538,971)" d="m0 0h25l45 1 18 1v1l-16 1h-106l-31-1 3-2z" fill="#FDFDFD"/>
<path transform="translate(1647,593)" d="m0 0 4 2 27 27 8 7 4 5 8 7 16 16 7 8 25 25-4-1-9-7-13-12-15-16-31-31-7-8-8-8-4-3v-2l-4-2-4-3z" fill="#403F41"/>
<path transform="translate(897,323)" d="m0 0 6 3 14 15 8 8 7 8 42 42 8 7 10 10-1 4-13-12-21-21-6-5-7-8-22-22-7-8-13-13-5-6z" fill="#373738"/>
<path transform="translate(1371,311)" d="m0 0 6 4 15 14 3 2v2l4 2 13 13v2h2v2h2v2h2v2h2v2h2v2h2v2h2v2h2v2h2l7 8 2 4h2v2h2l-1 3-5-3-23-23-7-8-9-9-10-8-9-9-1-4-7-6z" fill="#6A6A6B"/>
<path transform="translate(1063,965)" d="m0 0h5l1 3h-3v10l19-1 15-1 42 1 121 1v1h-200z" fill="#FDFDFD"/>
<path transform="translate(1557,1308)" d="m0 0h6l-1 3-9 3-9 1v2l14-1-4 2-11 2h-29l-11-2v-1l15 1-6-2 2-1 1-2 9 1 3 1v-2h12l2 1v-2h7z" fill="#515052"/>
<path transform="translate(811,850)" d="m0 0h6v2l37 1h10l-4 2v3h-41l-14-1v-2l-4-2 9-1z" fill="#414042"/>
<path transform="translate(1073,853)" d="m0 0h69l4 2-3 1-44 1h-34l-1-3z" fill="#373738"/>
<path transform="translate(1015,965)" d="m0 0 29 1v2l-26 1-3 2h-38l-8-1 4-3 12-1z" fill="#646364"/>
<path transform="translate(1633,967)" d="m0 0h43v11l-1 1-85 1 8 3v3l-10-2-4-1v-2l-5 2h-5l-2-3-13-1v-1l115-1 1-8-42-1z" fill="#717072"/>
<path transform="translate(991,747)" d="m0 0 31 2 20 3 2 1 1-3v6h-20l-17-1-16-6z" fill="#414042"/>
<path transform="translate(1552,467)" d="m0 0 38 1h4v7h-19l-17-1-6-5z" fill="#FDFDFD"/>
<path transform="translate(1593,951)" d="m0 0h81l-1 3h-66l-29-1v-1z" fill="#343435"/>
<path transform="translate(1306,1303)" d="m0 0 2 1v11l6-1-3-3 1-4 8-1h14l5 2-3 3-10 2 1 3-6 1h-15z" fill="#59585A"/>
<path transform="translate(1069,692)" d="m0 0h45l16 1 3 2-12 1h-57v-3z" fill="#383739"/>
<path transform="translate(257,1010)" d="m0 0h38v1l-20 1h-18l1 2 10 2 18 1 40 1 83 1v1h-96l-47-2-9-1-1-1v-5z" fill="#FDFDFD"/>
<path transform="translate(360,1301)" d="m0 0 21 2-1 13-1 1h-90l-1-1v-13l2 1v12l5-1 15-1-5-1v-1l8-1 1-3h4l1 4-3 2 63 1v-11h-10l-9-2z" fill="#838284"/>
<path transform="translate(1549,1009)" d="m0 0 10 2 1-2 3 3 3-1 3 1 1-3 3 3 5-2 2-1 1 3h3l2 4-9-1h-6l-3-1-1 1h-9l-2 1-12-1-4 1-5-2v2l-13-1 2-4h23l2 1z" fill="#414042"/>
<path transform="translate(1371,349)" d="m0 0 4 2 4 5 5 5 3 4h-29l2-4z" fill="#E7E7E7"/>
<path transform="translate(1064,904)" d="m0 0h53l33 1 2 2h-87z" fill="#373638"/>
<path transform="translate(1721,1306)" d="m0 0 5 1-3 1 1 1h14l1-2 3 1v3l-9 3-1 1 34-1 14-2h5l-4 2-12 2h-52l1-3-4-1 2-4z" fill="#4C4B4D"/>
<path transform="translate(1612,663)" d="m0 0h60l1 4h-44l-11-1-6-2z" fill="#363637"/>
<path transform="translate(1518,459)" d="m0 0 7 6 35 35 7 8 26 26 5 7-4-2-17-17-7-8-46-46-6-7z" fill="#3B3A3C"/>
<path transform="translate(1366,1304)" d="m0 0h19l6 2 2 1v5l-10 2-7-1-2-1-4-1-1-4h-3v2l2 2-2 1-6-3 3-4z" fill="#424143"/>
<path transform="translate(1088,707)" d="m0 0h68l-1 2-30 1h-53l1-2z" fill="#3A3A3B"/>
<path transform="translate(1694,638)" d="m0 0 7 6 13 13 7 8 25 25-4-1-9-7-13-12-15-16-4-8-4-2-3-3z" fill="#414042"/>
<path transform="translate(848,902)" d="m0 0h63l2 2-1 1h-65l-2-2z" fill="#373738"/>
<path transform="translate(1538,971)" d="m0 0h25l39 1v1l-25 1h-62l-16-1v-1z" fill="#565657"/>
<path transform="translate(435,622)" d="m0 0h56l-1 2-5 1-17 1h-27l-6-2z" fill="#363637"/>
<path transform="translate(1566,582)" d="m0 0h32l4 2 2 2h-50l-6-2v-1z" fill="#363637"/>
<path transform="translate(882,364)" d="m0 0h20v3l-2 1-25 1h-19l-5-1v-2l5-1z" fill="#383839"/>
<path transform="translate(852,572)" d="m0 0h69l4 2-1 1h-42l-30-1z" fill="#3A3A3B"/>
<path transform="translate(1585,815)" d="m0 0h53v2l-6 1h-61v-2z" fill="#3A393B"/>
<path transform="translate(1409,419)" d="m0 0h30l4 1 1 3h-52v-2l4-1z" fill="#3A3A3B"/>
<path transform="translate(1074,677)" d="m0 0h41l4 2-4 1-23 1h-25l-1-3z" fill="#3A393B"/>
<path transform="translate(1264,1303)" d="m0 0 5 1v11h-49l-1-2 15-2h10l21 1h2l-1-6h-2z" fill="#343435"/>
<path transform="translate(1524,982)" d="m0 0 2 2-7 2-10 3-5 4-4-2-1 1h-13l2-4 15-3 9-2z" fill="#424143"/>
<path transform="translate(1203,1299)" d="m0 0h2v2l-4 2-1 2-11 2-4 1v6l3 1 13 1v1h-21v-14l14-1z" fill="#686869"/>
<path transform="translate(454,1127)" d="m0 0h2l-1 5 6-1 3-2 3 1-4 5-1 5-4 2-7-1-1-4v-4l-6 2 5-5z" fill="#4F4E50"/>
<path transform="translate(784,288)" d="m0 0h36l5 1v2h-55l1-2z" fill="#343435"/>
<path transform="translate(472,986)" d="m0 0 13 3 1 3-4-1v1h-9l-3 1-14-1-3-3 1-2h12z" fill="#414042"/>
<path transform="translate(1549,1304)" d="m0 0 3 1-3 4-10 2-18 1-6 1-6-2v-1l12-1 3-2 22-2z" fill="#414042"/>
<path transform="translate(1576,619)" d="m0 0h59l1 2-5 1h-28l-22-1-5-1z" fill="#3A3A3B"/>
<path transform="translate(509,546)" d="m0 0 34 1 4 2-2 1-14 1h-22l-3-2z" fill="#373738"/>
<path transform="translate(498,921)" d="m0 0h48l14 1-1 2h-33l-22-1-6-1z" fill="#39393A"/>
<path transform="translate(469,699)" d="m0 0m-36 1h36v1l-9 1h-18l-7-1v15h47v1l-48 1-1-1z" fill="#FDFDFD"/>
<path transform="translate(173,1305)" d="m0 0 1 2 7-1v-1h13l1 2h-11l2 1v5h-7l-4 1h-6l-3-2 1-5h5z" fill="#414042"/>
<path transform="translate(672,384)" d="m0 0h55l5 1v1l-38 1h-19l-3-1z" fill="#373738"/>
<path transform="translate(433,929)" d="m0 0 23 1 4 2 9 1 1 2-36-1v10h-1z" fill="#D9D9D9"/>
<path transform="translate(1624,678)" d="m0 0h45l5 2v1h-42l-8-2z" fill="#353536"/>
<path transform="translate(1477,502)" d="m0 0h39l6 1v1l-10 1h-40l-1-2z" fill="#353536"/>
<path transform="translate(610,360)" d="m0 0h6l-5 6-5 2-2 4-4 2-1 5-3 1-4-2 4-7 5-4 6-4-4-2z" fill="#444345"/>
<path transform="translate(689,371)" d="m0 0h36l-3 2-17 2h-22l1-3z" fill="#3A3A3B"/>
<path transform="translate(530,526)" d="m0 0h17l20 1-1 2-9 1h-31z" fill="#373638"/>
<path transform="translate(932,474)" d="m0 0 49 1 6 1v1l-7 1h-17l-26-1-5-1z" fill="#39383A"/>
<path transform="translate(1594,392)" d="m0 0h1v43h-1v-8h-20l1-4h15l4 1z" fill="#424143"/>
<path transform="translate(762,246)" d="m0 0 3 1-7 6-4 6-10 12-7 8-6 7-2-1 6-9 12-13 6-7 7-8z" fill="#555556"/>
<path transform="translate(851,714)" d="m0 0 2 1 1 9v15l-3 3-2-4-4-4 3-3 2-9v-7z" fill="#424143"/>
<path transform="translate(608,276)" d="m0 0h33v15l-1 1h-7l3-12 1-2-29-1z" fill="#FDFDFD"/>
<path transform="translate(1067,804)" d="m0 0h37l3 2-11 1h-30z" fill="#3D3C3E"/>
<path transform="translate(992,417)" d="m0 0 7 6 12 11 17 17-6-2-19-19-11-9z" fill="#3E3E3F"/>
<path transform="translate(493,565)" d="m0 0h23l8 1-4 2-19 1h-12l-1-3z" fill="#3C3B3D"/>
<path transform="translate(823,451)" d="m0 0 11 1 1 3-5 2-7-1-5 1-6-3-1 3-3-1 2-4z" fill="#424143"/>
<path transform="translate(1594,494)" d="m0 0h1v18h-2l-7-8-5-6 5-1h8zm-7 7m1 1 4 6h1v-6z" fill="#414042"/>
<path transform="translate(161,1304)" d="m0 0h12l-1 4h-5v4l7 2v1l-13 1z" fill="#353536"/>
<path transform="translate(1483,1011)" d="m0 0 10 1 2-1h3l4 1 2-1 3 2 4-1v3l-12 1h-13l-7-1v-3z" fill="#414042"/>
<path transform="translate(453,561)" d="m0 0 2 1-9 10-8 7-12 12-8 7-4 2 6-7 14-13 7-8z" fill="#3D3C3E"/>
<path transform="translate(433,663)" d="m0 0 21 1v1h-18v10l35 1v1h-38z" fill="#FDFDFD"/>
<path transform="translate(758,447)" d="m0 0 11 1 4 2-1 4-10 1-5-3z" fill="#414042"/>
<path transform="translate(945,1303)" d="m0 0h9l3 2 13 1 13-2 2 2-9 1v4l-10 1-2-1 1-2-9-2-3-2-8-1z" fill="#414042"/>
<path transform="translate(1411,986)" d="m0 0h8l15 2v2l-6 2h-18l4-3-3-1z" fill="#414042"/>
<path transform="translate(434,623)" d="m0 0 7 2-4 1v8l1 4h-2v2h41v1h-43z" fill="#FDFDFD"/>
<path transform="translate(1561,1007)" d="m0 0h22l-4 4-6 2-3-2-5 1-2 1-3-2z" fill="#353536"/>
<path transform="translate(1174,552)" d="m0 0h22l11 1-1 2h-33l-1-2z" fill="#3C3C3D"/>
<path transform="translate(468,777)" d="m0 0m-34 1h34v1h-33l1 6h23l2-1v4h-27l-1-1v-8z" fill="#FDFDFD"/>
<path transform="translate(1561,504)" d="m0 0 4 2 28 28 5 7-4-2-17-17-7-8-9-9z" fill="#414042"/>
<path transform="translate(1064,937)" d="m0 0h40v1l-5 1-22 1h-12z" fill="#39393A"/>
<path transform="translate(828,435)" d="m0 0 5 3 1 4-3-3-4 2-13 4-4-1 3-4 9-3z" fill="#424143"/>
<path transform="translate(1415,402)" d="m0 0h10l-1 3-37 3 1-2 9-2z" fill="#3B3A3C"/>
<path transform="translate(410,602)" d="m0 0 2 1-7 7-9 11-5 4-7 6-2 1 2-4z" fill="#39393A"/>
<path transform="translate(1658,1303)" d="m0 0h12l-4 4h-4l2 6 4 2-10 1z" fill="#3A393B"/>
<path transform="translate(795,221)" d="m0 0 1 3-8 5-9 5-9 8-1-3 3-3 5-3 11-10z" fill="#383839"/>
<path transform="translate(362,1306)" d="m0 0h12l3 2v4l-3 1h-9l-1-3-2-2z" fill="#424143"/>
<path transform="translate(433,681)" d="m0 0h8v1h-5l1 7 3 5 7 1v1l-13 1-1-1z" fill="#FDFDFD"/>
<path transform="translate(1558,465)" d="m0 0h15l20 2-3 2-37-1v-1l5-1z" fill="#3A3A3B"/>
<path transform="translate(762,425)" d="m0 0 10 2 5 4 5 3v2h-8l-4-2-1-3-2-1v-2l-5-1z" fill="#424143"/>
<path transform="translate(588,941)" d="m0 0h37v3l-39-1z" fill="#373738"/>
<path transform="translate(1571,485)" d="m0 0h22v4h-17l-5-3z" fill="#424143"/>
<path transform="translate(1088,662)" d="m0 0h18l13 2v1h-31z" fill="#3B3A3C"/>
<path transform="translate(979,464)" d="m0 0h14l10 1-1 2h-20l-27-1v-1z" fill="#444345"/>
<path transform="translate(458,728)" d="m0 0 8 2v2l-2 1 4 2h-26v-1h11v-2h2l1-3z" fill="#FDFDFD"/>
<path transform="translate(746,309)" d="m0 0 26 1 10 1v1l-40 1z" fill="#FDFDFD"/>
<path transform="translate(1593,951)" d="m0 0h19v1l20 1v1h-25l-29-1v-1z" fill="#3D3C3E"/>
<path transform="translate(1349,550)" d="m0 0h7l7 3-1 2-9 1h-6l-2-3z" fill="#424143"/>
<path transform="translate(614,460)" d="m0 0h25v3h-23l-3-2z" fill="#3D3C3E"/>
<path transform="translate(1342,1010)" d="m0 0 12 1h4l3 1-1 3-7 1h-4-5v-2h-2v-2l-2-1z" fill="#424143"/>
<path transform="translate(800,238)" d="m0 0 5 4 7 8 9 9 2 4-4-2-11-10-8-11z" fill="#424143"/>
<path transform="translate(1385,1303)" d="m0 0 11 1v11h-12l1-2 8-1v-5l-8-2z" fill="#343435"/>
<path transform="translate(982,1307)" d="m0 0h17l4 1v2l-7 1-3-1-2 2h-8v-2h-2z" fill="#414042"/>
<path transform="translate(1541,1310)" d="m0 0m-2 0 2 1 1 4-4-1-11-1v2h-9l-3-2 4-2h10z" fill="#343435"/>
<path transform="translate(1157,566)" d="m0 0 36 1 8 1v1l-5 1-17-1h-22z" fill="#424143"/>
<path transform="translate(1685,630)" d="m0 0 3 1 5 5 3 6 5 4 5 7-4-2-18-18z" fill="#39393A"/>
<path transform="translate(1077,755)" d="m0 0h17v3h-24v-2z" fill="#353536"/>
<path transform="translate(640,291)" d="m0 0 1 4h-22l-1-2 3-1z" fill="#403F41"/>
<path transform="translate(1020,858)" d="m0 0h15l8 1-2 2h-24v-2z" fill="#3A3A3B"/>
<path transform="translate(440,787)" d="m0 0h19l2 2-2 1h-21l-2-2z" fill="#3C3C3D"/>
<path transform="translate(625,304)" d="m0 0h10l6 1v4l-16-1-1-3z" fill="#424143"/>
<path transform="translate(492,1308)" d="m0 0h12v3l-3 1h-21l3-2z" fill="#414042"/>
<path transform="translate(884,308)" d="m0 0 4 2 13 14h-3l-4-2-11-12z" fill="#3D3C3E"/>
<path transform="translate(897,323)" d="m0 0 6 3 11 12-3 2-9-9-5-6z" fill="#3A393B"/>
<path transform="translate(794,258)" d="m0 0 4 2 4 6h-13l4-7z" fill="#FDFDFD"/>
<path transform="translate(795,218)" d="m0 0 5 2 8 7-3 3-7-7-7-1z" fill="#3F3E40"/>
<path transform="translate(1024,920)" d="m0 0h17l1 3h-15l-9-1v-1z" fill="#3C3B3D"/>
<path transform="translate(820,1307)" d="m0 0 4 1-2 4-9 1-2-1 1-4z" fill="#414042"/>
<path transform="translate(1575,446)" d="m0 0h18v3h-16z" fill="#424143"/>
<path transform="translate(1077,1287)" d="m0 0h2l2 14-1-2h-2l-1-4-3-1-5 1 4-4h2z" fill="#414042"/>
<path transform="translate(1726,683)" d="m0 0 7 6 6 9-5-2-8-9z" fill="#727173"/>
<path transform="translate(634,1304)" d="m0 0h5v4l-2 4 3 3-6 1z" fill="#373738"/>
<path transform="translate(648,1007)" d="m0 0h24l-3 1-1 3h-3v-3l-6 1-2-1-1 3-2-2-1 2h-2v-2l-3-1z" fill="#403F41"/>
<path transform="translate(1518,459)" d="m0 0 7 6 12 12-2 2-11-11-6-7z" fill="#3E3D3F"/>
<path transform="translate(743,269)" d="m0 0 1 2-7 8-6 7-2-1 6-9z" fill="#383839"/>
<path transform="translate(1389,1118)" d="m0 0h9v9l-1 5h-1v-12h-18v-1z" fill="#888788"/>
<path transform="translate(1647,593)" d="m0 0 4 2 9 9v2l-4-1-1-3-4-2-4-3z" fill="#3D3C3E"/>
<path transform="translate(1583,500)" d="m0 0h11v11l-7-6zm4 1m1 1 4 6h1v-6z" fill="#FDFDFD"/>
<path transform="translate(635,339)" d="m0 0 3 1-8 6-11 2-1-2 13-5z" fill="#403F41"/>
<path transform="translate(442,1135)" d="m0 0 2 1-14 14-6 9-2-1 8-11 4-5z" fill="#9D9D9E"/>
<path transform="translate(1381,551)" d="m0 0h13l-1 3-2 1h-11z" fill="#424143"/>
<path transform="translate(1371,311)" d="m0 0 6 4 15 14 1 2-4-2-11-10-7-6z" fill="#FDFDFD"/>
<path transform="translate(1623,1011)" d="m0 0 8 1 2 1 2-2 1 4 3 1h-18l3-1z" fill="#414042"/>
<path transform="translate(844,514)" d="m0 0 3 2 1 5-5 1v-2l-22-1v-1h23z" fill="#424143"/>
<path transform="translate(663,1303)" d="m0 0 5 1 2 1h7l6-1 5 1-1 2-18 1-3-1v-2h-3z" fill="#343435"/>
<path transform="translate(1e3 1008)" d="m0 0h5v2l5-1 2 2-3 1h-12l-6 1 3-3z" fill="#424143"/>
<path transform="translate(994,511)" d="m0 0h22l2 3h-18l-6-2z" fill="#3C3C3D"/>
<path transform="translate(610,360)" d="m0 0h6l-5 6-4 1v-4l-4-2z" fill="#3E3D3F"/>
<path transform="translate(664,1302)" d="m0 0 12 1h9l4 2h-10l-2 1h-7l-6-3z" fill="#424143"/>
<path transform="translate(1067,964)" d="m0 0h9v4l4 1h-10z" fill="#4D4D4E"/>
<path transform="translate(1582,525)" d="m0 0 4 2 7 7 5 7-4-2-12-12z" fill="#3E3D3F"/>
<path transform="translate(1531,509)" d="m0 0 2 1-1 3-19-1v-1z" fill="#3C3B3D"/>
<path transform="translate(756,853)" d="m0 0h7l1 1 3-1-1 4h-12z" fill="#424143"/>
<path transform="translate(1405,394)" d="m0 0h12l3 3v1h-8v-2h-6z" fill="#4B4A4C"/>
<path transform="translate(649,241)" d="m0 0h7l2 3-2 1h-9l-2-3z" fill="#3F3F40"/>
<path transform="translate(453,561)" d="m0 0 2 1-9 10-4 3-3-1z" fill="#3B3B3C"/>
<path transform="translate(788,265)" d="m0 0 1 3h15l2 2h-20z" fill="#424143"/>
<path transform="translate(573,254)" d="m0 0h11v1l13 1v1h-21z" fill="#FDFDFD"/>
<path transform="translate(745,970)" d="m0 0h7v3h-16l-10-1v-1z" fill="#FDFDFD"/>
<path transform="translate(1019,764)" d="m0 0h8v2h6v1h-17v-2z" fill="#414042"/>
<path transform="translate(1397,404)" d="m0 0h10l-4 2-11 2h-5l1-2z" fill="#39393A"/>
<path transform="translate(618,352)" d="m0 0 5 1-3 4-9 1v-2z" fill="#3A3A3B"/>
<path transform="translate(969,966)" d="m0 0v3zm-5 1 5 2v1h-23l4-2h13z" fill="#424143"/>
<path transform="translate(1576,436)" d="m0 0h9l3 3h-11l-5-1z" fill="#383839"/>
<path transform="translate(1086,1263)" d="m0 0h6l-2 9h-2z" fill="#343435"/>
<path transform="translate(1577,494)" d="m0 0h15l1 2-15 1z" fill="#424143"/>
<path transform="translate(771,853)" d="m0 0 5 1h4v3h-3-8z" fill="#424143"/>
<path transform="translate(1685,630)" d="m0 0 3 1 5 6h-2l-1 2-6-6z" fill="#3C3B3D"/>
<path transform="translate(578,382)" d="m0 0 4 1h-3v4l3 1-3 6-2-4v-7z" fill="#FDFDFD"/>
<path transform="translate(606,446)" d="m0 0h12l-3 3h-10z" fill="#424143"/>
<path transform="translate(577,380)" d="m0 0h9l3 1-1 3-11-1z" fill="#424143"/>
<path transform="translate(1554,987)" d="m0 0 3 2-6 2h-6l-2-2z" fill="#424143"/>
<path transform="translate(1589,981)" d="m0 0 8 1 2 4-11-2z" fill="#414042"/>
<path transform="translate(1197,525)" d="m0 0 12 1-2 2-7 1-3 1-1-3z" fill="#3E3D3F"/>
<path transform="translate(1551,493)" d="m0 0 4 2 7 8h-3l-8-8z" fill="#3C3B3D"/>
<path transform="translate(459,789)" d="m0 0h2v3h-13v-2z" fill="#FDFDFD"/>
<path transform="translate(410,602)" d="m0 0 2 1-12 12v-3z" fill="#3C3B3D"/>
<path transform="translate(650,1302)" d="m0 0m-15 1h15l-2 1-1 2h-7l-5-2z" fill="#39393A"/>
<path transform="translate(779,231)" d="m0 0 2 2-11 9-1-3 3-3 5-3z" fill="#6B6A6C"/>
<path transform="translate(1513,1011)" d="m0 0 8 1v3l-6 1-3-1z" fill="#424143"/>
<path transform="translate(1559,1011)" d="m0 0 5 1 2-1 2 1-1 3h-8z" fill="#424143"/>
<path transform="translate(755,970)" d="m0 0 1 3h-2z" fill="#FDFDFD"/>
<path transform="translate(458,709)" d="m0 0h2l-1 2z" fill="#FDFDFD"/>
<path transform="translate(496,948)" d="m0 0 2 1z" fill="#FDFDFD"/>
<path transform="translate(494,947)" d="m0 0 2 1z" fill="#FDFDFD"/>
<path transform="translate(492,946)" d="m0 0 2 1z" fill="#FDFDFD"/>
<path transform="translate(519,933)" d="m0 0" fill="#FDFDFD"/>
<path transform="translate(589,353)" d="m0 0" fill="#FDFDFD"/>
</svg>
