<svg width="172" height="45" viewBox="0 0 172 45" fill="none" xmlns="http://www.w3.org/2000/svg">
<path d="M30.06 12.06L24.21 33H19.26L15.33 18.09L11.22 33L6.3 33.03L0.66 12.06H5.16L8.85 28.32L13.11 12.06H17.79L21.81 28.23L25.53 12.06H30.06ZM37.0024 15.45V20.7H44.0524V24.03H37.0024V29.58H44.9524V33H32.8024V12.03H44.9524V15.45H37.0024ZM60.6492 22.26C61.8292 22.48 62.7992 23.07 63.5592 24.03C64.3192 24.99 64.6992 26.09 64.6992 27.33C64.6992 28.45 64.4192 29.44 63.8592 30.3C63.3192 31.14 62.5292 31.8 61.4892 32.28C60.4492 32.76 59.2192 33 57.7992 33H48.7692V12.06H57.4092C58.8292 12.06 60.0492 12.29 61.0692 12.75C62.1092 13.21 62.8892 13.85 63.4092 14.67C63.9492 15.49 64.2192 16.42 64.2192 17.46C64.2192 18.68 63.8892 19.7 63.2292 20.52C62.5892 21.34 61.7292 21.92 60.6492 22.26ZM52.9692 20.7H56.8092C57.8092 20.7 58.5792 20.48 59.1192 20.04C59.6592 19.58 59.9292 18.93 59.9292 18.09C59.9292 17.25 59.6592 16.6 59.1192 16.14C58.5792 15.68 57.8092 15.45 56.8092 15.45H52.9692V20.7ZM57.1992 29.58C58.2192 29.58 59.0092 29.34 59.5692 28.86C60.1492 28.38 60.4392 27.7 60.4392 26.82C60.4392 25.92 60.1392 25.22 59.5392 24.72C58.9392 24.2 58.1292 23.94 57.1092 23.94H52.9692V29.58H57.1992ZM67.0266 22.5C67.0266 20.44 67.4866 18.6 68.4066 16.98C69.3466 15.34 70.6166 14.07 72.2166 13.17C73.8366 12.25 75.6466 11.79 77.6466 11.79C79.9866 11.79 82.0366 12.39 83.7966 13.59C85.5566 14.79 86.7866 16.45 87.4866 18.57H82.6566C82.1766 17.57 81.4966 16.82 80.6166 16.32C79.7566 15.82 78.7566 15.57 77.6166 15.57C76.3966 15.57 75.3066 15.86 74.3466 16.44C73.4066 17 72.6666 17.8 72.1266 18.84C71.6066 19.88 71.3466 21.1 71.3466 22.5C71.3466 23.88 71.6066 25.1 72.1266 26.16C72.6666 27.2 73.4066 28.01 74.3466 28.59C75.3066 29.15 76.3966 29.43 77.6166 29.43C78.7566 29.43 79.7566 29.18 80.6166 28.68C81.4966 28.16 82.1766 27.4 82.6566 26.4H87.4866C86.7866 28.54 85.5566 30.21 83.7966 31.41C82.0566 32.59 80.0066 33.18 77.6466 33.18C75.6466 33.18 73.8366 32.73 72.2166 31.83C70.6166 30.91 69.3466 29.64 68.4066 28.02C67.4866 26.4 67.0266 24.56 67.0266 22.5Z" fill="#4529E6"/>
<path d="M122.3 33.21C120.84 33.21 119.52 32.96 118.34 32.46C117.18 31.96 116.26 31.24 115.58 30.3C114.9 29.36 114.55 28.25 114.53 26.97H119.03C119.09 27.83 119.39 28.51 119.93 29.01C120.49 29.51 121.25 29.76 122.21 29.76C123.19 29.76 123.96 29.53 124.52 29.07C125.08 28.59 125.36 27.97 125.36 27.21C125.36 26.59 125.17 26.08 124.79 25.68C124.41 25.28 123.93 24.97 123.35 24.75C122.79 24.51 122.01 24.25 121.01 23.97C119.65 23.57 118.54 23.18 117.68 22.8C116.84 22.4 116.11 21.81 115.49 21.03C114.89 20.23 114.59 19.17 114.59 17.85C114.59 16.61 114.9 15.53 115.52 14.61C116.14 13.69 117.01 12.99 118.13 12.51C119.25 12.01 120.53 11.76 121.97 11.76C124.13 11.76 125.88 12.29 127.22 13.35C128.58 14.39 129.33 15.85 129.47 17.73H124.85C124.81 17.01 124.5 16.42 123.92 15.96C123.36 15.48 122.61 15.24 121.67 15.24C120.85 15.24 120.19 15.45 119.69 15.87C119.21 16.29 118.97 16.9 118.97 17.7C118.97 18.26 119.15 18.73 119.51 19.11C119.89 19.47 120.35 19.77 120.89 20.01C121.45 20.23 122.23 20.49 123.23 20.79C124.59 21.19 125.7 21.59 126.56 21.99C127.42 22.39 128.16 22.99 128.78 23.79C129.4 24.59 129.71 25.64 129.71 26.94C129.71 28.06 129.42 29.1 128.84 30.06C128.26 31.02 127.41 31.79 126.29 32.37C125.17 32.93 123.84 33.21 122.3 33.21ZM146.191 29.01H137.851L136.471 33H132.061L139.591 12.03H144.481L152.011 33H147.571L146.191 29.01ZM145.051 25.65L142.021 16.89L138.991 25.65H145.051ZM162.056 33.21C160.596 33.21 159.276 32.96 158.096 32.46C156.936 31.96 156.016 31.24 155.336 30.3C154.656 29.36 154.306 28.25 154.286 26.97H158.786C158.846 27.83 159.146 28.51 159.686 29.01C160.246 29.51 161.006 29.76 161.966 29.76C162.946 29.76 163.716 29.53 164.276 29.07C164.836 28.59 165.116 27.97 165.116 27.21C165.116 26.59 164.926 26.08 164.546 25.68C164.166 25.28 163.686 24.97 163.106 24.75C162.546 24.51 161.766 24.25 160.766 23.97C159.406 23.57 158.296 23.18 157.436 22.8C156.596 22.4 155.866 21.81 155.246 21.03C154.646 20.23 154.346 19.17 154.346 17.85C154.346 16.61 154.656 15.53 155.276 14.61C155.896 13.69 156.766 12.99 157.886 12.51C159.006 12.01 160.286 11.76 161.726 11.76C163.886 11.76 165.636 12.29 166.976 13.35C168.336 14.39 169.086 15.85 169.226 17.73H164.606C164.566 17.01 164.256 16.42 163.676 15.96C163.116 15.48 162.366 15.24 161.426 15.24C160.606 15.24 159.946 15.45 159.446 15.87C158.966 16.29 158.726 16.9 158.726 17.7C158.726 18.26 158.906 18.73 159.266 19.11C159.646 19.47 160.106 19.77 160.646 20.01C161.206 20.23 161.986 20.49 162.986 20.79C164.346 21.19 165.456 21.59 166.316 21.99C167.176 22.39 167.916 22.99 168.536 23.79C169.156 24.59 169.466 25.64 169.466 26.94C169.466 28.06 169.176 29.1 168.596 30.06C168.016 31.02 167.166 31.79 166.046 32.37C164.926 32.93 163.596 33.21 162.056 33.21Z" fill="#4529E6"/>
<path d="M111.347 15.6787L104.159 9.92913C103.4 9.32712 102.464 9 101.5 9C100.536 9 99.5996 9.32712 98.8406 9.92913L91.6531 15.6787C91.139 16.0841 90.7229 16.6029 90.4365 17.1957C90.15 17.7884 90.0007 18.4394 90 19.0993V30.0889C90.0023 30.8602 90.3059 31.5993 90.8446 32.1448C91.3833 32.6902 92.1132 32.9977 92.875 33H96.9719C97.7337 32.9977 98.4636 32.6902 99.0023 32.1448C99.541 31.5993 99.8446 30.8602 99.8469 30.0889V24.6304H103.8V30.0889C103.802 30.8602 104.106 31.5993 104.645 32.1448C105.183 32.6902 105.913 32.9977 106.675 33H110.125C110.887 32.9977 111.617 32.6902 112.155 32.1448C112.694 31.5993 112.998 30.8602 113 30.0889V19.0993C112.999 18.4394 112.85 17.7884 112.564 17.1957C112.277 16.6029 111.861 16.0841 111.347 15.6787ZM110.125 30.0889H106.675V24.6304C106.673 23.8591 106.369 23.1199 105.83 22.5745C105.292 22.029 104.562 21.7216 103.8 21.7193H99.8469C99.0851 21.7216 98.3551 22.029 97.8165 22.5745C97.2778 23.1199 96.9742 23.8591 96.9719 24.6304V30.0889H92.875V19.0993C92.8797 18.8741 92.9337 18.6529 93.0331 18.4515C93.1326 18.2501 93.2749 18.0736 93.45 17.9348L100.637 12.1853C101.141 11.7486 101.859 11.7486 102.434 12.1853L109.622 17.9348C109.797 18.0736 109.939 18.2501 110.039 18.4515C110.138 18.6529 110.192 18.8741 110.197 19.0993V30.0889H110.125Z" fill="#4529E6"/>
</svg>
