<svg width="54" height="45" viewBox="0 0 54 45" fill="none" xmlns="http://www.w3.org/2000/svg">
<path d="M30.06 12.06L24.21 33H19.26L15.33 18.09L11.22 33L6.3 33.03L0.66 12.06H5.16L8.85 28.32L13.11 12.06H17.79L21.81 28.23L25.53 12.06H30.06Z" fill="#4529E6"/>
<path d="M52.3469 15.6787L45.1594 9.92913C44.4004 9.32712 43.4641 9 42.5 9C41.5359 9 40.5996 9.32712 39.8406 9.92913L32.6531 15.6787C32.139 16.0841 31.7229 16.6029 31.4365 17.1956C31.15 17.7884 31.0007 18.4394 31 19.0993V30.0888C31.0023 30.8602 31.3059 31.5994 31.8446 32.1448C32.3833 32.6902 33.1132 32.9977 33.875 33H37.9719C38.7337 32.9977 39.4636 32.6902 40.0023 32.1448C40.541 31.5994 40.8446 30.8602 40.8469 30.0888V24.6304H44.8V30.0888C44.8023 30.8602 45.1059 31.5994 45.6446 32.1448C46.1833 32.6902 46.9132 32.9977 47.675 33H51.125C51.8868 32.9977 52.6167 32.6902 53.1554 32.1448C53.6941 31.5994 53.9977 30.8602 54 30.0888V19.0993C53.9993 18.4394 53.85 17.7884 53.5635 17.1956C53.2771 16.6029 52.861 16.0841 52.3469 15.6787ZM51.125 30.0888H47.675V24.6304C47.6727 23.8591 47.3691 23.1199 46.8304 22.5745C46.2917 22.029 45.5618 21.7216 44.8 21.7193H40.8469C40.0851 21.7216 39.3551 22.029 38.8165 22.5745C38.2778 23.1199 37.9742 23.8591 37.9719 24.6304V30.0888H33.875V19.0993C33.8797 18.8741 33.9337 18.6529 34.0331 18.4515C34.1326 18.2501 34.2749 18.0736 34.45 17.9348L41.6375 12.1853C42.1406 11.7486 42.8594 11.7486 43.4344 12.1853L50.6219 17.9348C50.7969 18.0736 50.9393 18.2501 51.0388 18.4515C51.1382 18.6529 51.1922 18.8741 51.1969 19.0993V30.0888H51.125Z" fill="#4529E6"/>
</svg>
